<svg width="25" height="25" viewBox="0 0 25 25" fill="none" xmlns="http://www.w3.org/2000/svg">
<path d="M12.5 0C19.4052 0 25 5.59476 25 12.5C25 19.4052 19.4052 25 12.5 25C5.59476 25 0 19.4052 0 12.5C0 5.59476 5.59476 0 12.5 0ZM6.65323 14.7177H12.5V18.2913C12.5 18.8306 13.1552 19.1028 13.5333 18.7198L19.2944 12.9284C19.5312 12.6915 19.5312 12.3135 19.2944 12.0766L13.5333 6.28024C13.1502 5.89718 12.5 6.16936 12.5 6.70867V10.2823H6.65323C6.32056 10.2823 6.04839 10.5544 6.04839 10.8871V14.1129C6.04839 14.4456 6.32056 14.7177 6.65323 14.7177Z" fill="white"/>
</svg>
