<svg width="39" height="38" viewBox="0 0 39 38" fill="none" xmlns="http://www.w3.org/2000/svg">
<path d="M12.9609 30.4219C12.9609 30.5781 12.7812 30.7031 12.5547 30.7031C12.2969 30.7266 12.1172 30.6016 12.1172 30.4219C12.1172 30.2656 12.2969 30.1406 12.5234 30.1406C12.7578 30.1172 12.9609 30.2422 12.9609 30.4219ZM10.5313 30.0703C10.4766 30.2266 10.6328 30.4063 10.8672 30.4531C11.0703 30.5313 11.3047 30.4531 11.3516 30.2969C11.3984 30.1406 11.25 29.9609 11.0156 29.8906C10.8125 29.8359 10.5859 29.9141 10.5313 30.0703ZM13.9844 29.9375C13.7578 29.9922 13.6016 30.1406 13.625 30.3203C13.6484 30.4766 13.8516 30.5781 14.0859 30.5234C14.3125 30.4688 14.4687 30.3203 14.4453 30.1641C14.4219 30.0156 14.2109 29.9141 13.9844 29.9375ZM19.125 0C8.28906 0 0 8.22656 0 19.0625C0 27.7266 5.45313 35.1406 13.2422 37.75C14.2422 37.9297 14.5938 37.3125 14.5938 36.8047C14.5938 36.3203 14.5703 33.6484 14.5703 32.0078C14.5703 32.0078 9.10156 33.1797 7.95313 29.6797C7.95313 29.6797 7.0625 27.4063 5.78125 26.8203C5.78125 26.8203 3.99219 25.5938 5.90625 25.6172C5.90625 25.6172 7.85156 25.7734 8.92187 27.6328C10.6328 30.6484 13.5 29.7813 14.6172 29.2656C14.7969 28.0156 15.3047 27.1484 15.8672 26.6328C11.5 26.1484 7.09375 25.5156 7.09375 18C7.09375 15.8516 7.6875 14.7734 8.9375 13.3984C8.73438 12.8906 8.07031 10.7969 9.14062 8.09375C10.7734 7.58594 14.5312 10.2031 14.5312 10.2031C16.0938 9.76563 17.7734 9.53906 19.4375 9.53906C21.1016 9.53906 22.7813 9.76563 24.3438 10.2031C24.3438 10.2031 28.1016 7.57813 29.7344 8.09375C30.8047 10.8047 30.1406 12.8906 29.9375 13.3984C31.1875 14.7813 31.9531 15.8594 31.9531 18C31.9531 25.5391 27.3516 26.1406 22.9844 26.6328C23.7031 27.25 24.3125 28.4219 24.3125 30.2578C24.3125 32.8906 24.2891 36.1484 24.2891 36.7891C24.2891 37.2969 24.6484 37.9141 25.6406 37.7344C33.4531 35.1406 38.75 27.7266 38.75 19.0625C38.75 8.22656 29.9609 0 19.125 0ZM7.59375 26.9453C7.49219 27.0234 7.51563 27.2031 7.64844 27.3516C7.77344 27.4766 7.95312 27.5313 8.05469 27.4297C8.15625 27.3516 8.13281 27.1719 8 27.0234C7.875 26.8984 7.69531 26.8438 7.59375 26.9453ZM6.75 26.3125C6.69531 26.4141 6.77344 26.5391 6.92969 26.6172C7.05469 26.6953 7.21094 26.6719 7.26562 26.5625C7.32031 26.4609 7.24219 26.3359 7.08594 26.2578C6.92969 26.2109 6.80469 26.2344 6.75 26.3125ZM9.28125 29.0938C9.15625 29.1953 9.20312 29.4297 9.38281 29.5781C9.5625 29.7578 9.78906 29.7813 9.89062 29.6563C9.99219 29.5547 9.94531 29.3203 9.78906 29.1719C9.61719 28.9922 9.38281 28.9688 9.28125 29.0938ZM8.39063 27.9453C8.26563 28.0234 8.26563 28.2266 8.39063 28.4063C8.51563 28.5859 8.72656 28.6641 8.82812 28.5859C8.95313 28.4844 8.95313 28.2813 8.82812 28.1016C8.71875 27.9219 8.51563 27.8438 8.39063 27.9453Z" fill="white"/>
</svg>
