<svg width="19" height="25" viewBox="0 0 19 25" fill="none" xmlns="http://www.w3.org/2000/svg">
<path d="M13.4172 15.2783C13.8957 14.9512 14.5598 14.668 14.5598 14.668C14.5598 14.668 12.6701 15.0098 10.7903 15.166C8.49045 15.3564 6.01974 15.3955 4.77951 15.2295C1.84494 14.8389 6.39084 13.7598 6.39084 13.7598C6.39084 13.7598 4.62814 13.6426 2.45529 14.6875C-0.108186 15.9277 8.80295 16.4941 13.4172 15.2783ZM9.24728 13.7109C8.31955 11.626 5.18967 9.79492 9.24728 6.5918C14.3088 2.59766 11.7131 0 11.7131 0C12.7629 4.12598 8.0217 5.37598 6.30783 7.93945C5.14084 9.69238 6.87912 11.5723 9.24728 13.7109ZM14.843 5.10742C14.8479 5.10742 6.2883 7.24609 10.3752 11.9531C11.5813 13.3398 10.0578 14.5898 10.0578 14.5898C10.0578 14.5898 13.1194 13.0078 11.7131 11.0303C10.3996 9.18457 9.39377 8.2666 14.843 5.10742ZM14.5451 18.3154C14.5184 18.362 14.4856 18.4047 14.4475 18.4424C20.7121 16.7969 18.4074 12.6367 15.4143 13.6914C15.2526 13.7508 15.1129 13.8581 15.0139 13.999C15.1887 13.9358 15.3683 13.8868 15.551 13.8525C17.0647 13.5352 19.2375 15.8789 14.5451 18.3154ZM16.8479 21.3574C16.8479 21.3574 17.5559 21.9385 16.0715 22.3926C13.2444 23.2471 4.31369 23.5059 1.83322 22.4268C0.939666 22.041 2.61447 21.499 3.14181 21.3867C3.68869 21.2695 4.00607 21.2891 4.00607 21.2891C3.01486 20.5908 -2.40506 22.6611 1.25217 23.252C11.2248 24.873 19.4358 22.5244 16.8479 21.3574ZM5.93185 19.3359C2.08908 20.4102 8.27072 22.627 13.1633 20.5322C12.6861 20.3468 12.2255 20.1214 11.7863 19.8584C9.60373 20.2734 8.59299 20.3027 6.61056 20.0781C4.97482 19.8926 5.93185 19.3359 5.93185 19.3359ZM14.7111 24.082C10.8684 24.8047 6.12717 24.7217 3.31955 24.2578C3.31955 24.2529 3.89572 24.7314 6.8547 24.9219C11.3567 25.21 18.2707 24.7607 18.4319 22.6318C18.4319 22.6318 18.1194 23.4375 14.7111 24.082ZM12.5822 17.2363C9.69162 17.793 8.01681 17.7783 5.90256 17.5586C4.26681 17.3877 5.33615 16.5967 5.33615 16.5967C1.09787 18.0029 7.68966 19.5947 13.6125 17.8613C13.2297 17.7262 12.879 17.5134 12.5822 17.2363Z" fill="#EA2D2E"/>
</svg>
