<svg width="22" height="25" viewBox="0 0 22 25" fill="none" xmlns="http://www.w3.org/2000/svg">
<path d="M10.2061 0.674805C10.5725 0.47004 11.0519 0.446163 11.4414 0.599609L11.6035 0.676758L20.6191 5.88477H20.6201C21.0491 6.13142 21.3162 6.59513 21.3164 7.09668V17.5029C21.3162 17.9983 21.0497 18.4635 20.6172 18.7158L11.6006 23.9199C11.3881 24.0423 11.1472 24.1074 10.9033 24.1074C10.7235 24.1074 10.54 24.0708 10.3701 24.001L10.2061 23.9199L7.65918 22.4131C7.84957 22.3319 8.03204 22.2395 8.31348 22.0811L10.5068 23.3818L10.5078 23.3828C10.7375 23.5179 11.0463 23.5272 11.2891 23.3838L11.29 23.3848L20.3086 18.1797L20.3125 18.1777C20.5553 18.0348 20.6951 17.7688 20.6953 17.5029V7.09277C20.6953 6.81004 20.5456 6.55833 20.3145 6.41699L20.0547 6.8418L20.3145 6.41602L20.3037 6.41016L11.293 1.21191H11.2939C11.0545 1.07104 10.7473 1.07104 10.5078 1.21191L1.50293 6.41504C1.24854 6.55993 1.1115 6.82997 1.11133 7.09668V17.5029C1.1115 17.7584 1.24451 18.03 1.50293 18.1729V18.1748L3.97363 19.6006L3.9873 19.6084L4.00098 19.6152C4.78037 20.0034 5.5032 20.0096 6.05664 19.6943C6.5964 19.3867 6.88655 18.8189 6.88672 18.2549V8.22168H7.55664V18.2598C7.55655 19.065 7.33742 19.63 6.99414 19.9912C6.6542 20.3489 6.13076 20.5723 5.38574 20.5723C5.12667 20.5723 4.9425 20.5709 4.69141 20.5137C4.43602 20.4554 4.09132 20.333 3.54785 20.0645L1.19727 18.71H1.19629C0.767337 18.4633 0.500173 17.9996 0.5 17.498V7.09277C0.5 6.5952 0.767813 6.12626 1.19629 5.87988H1.19727L10.2061 0.674805ZM13.3252 7.95312C14.7265 7.95312 15.686 8.19878 16.3057 8.63281C16.8448 9.01048 17.1788 9.5708 17.2969 10.3916H16.582C16.4135 9.77543 16.1205 9.28095 15.5742 8.96094C15.0141 8.63281 14.2641 8.53613 13.3252 8.53613C12.2505 8.53613 11.5346 8.71898 11.083 9.07031C10.5939 9.45091 10.5107 9.94899 10.5107 10.3008C10.5108 10.4903 10.5287 10.7382 10.6719 10.9736C10.8182 11.2142 11.048 11.366 11.3105 11.4756C11.8057 11.6822 12.6506 11.8289 14.0312 12.0117C15.4226 12.1958 16.3421 12.4086 16.915 12.7637C17.1865 12.9319 17.3687 13.1263 17.4883 13.3613C17.6102 13.6011 17.6836 13.9169 17.6836 14.3486C17.6835 15.1689 17.3516 15.7862 16.7236 16.2188C16.0714 16.6679 15.0612 16.941 13.6904 16.9434C11.7828 16.9432 10.7324 16.5048 10.1602 15.9795C9.66404 15.5238 9.46549 14.9449 9.4248 14.3555H10.1426C10.2534 14.9273 10.4796 15.4605 11.0381 15.8301C11.6199 16.215 12.477 16.3623 13.6865 16.3623C14.6525 16.3623 15.4347 16.2562 15.9883 15.9629C16.2762 15.8103 16.5127 15.6016 16.6729 15.3262C16.832 15.0524 16.8964 14.7457 16.8965 14.4268C16.8965 14.2541 16.8813 14.0187 16.7559 13.7832C16.6269 13.5413 16.4158 13.3594 16.1396 13.2188C15.6842 12.9868 14.9504 12.816 13.7871 12.6807L13.2617 12.625C12.0328 12.5033 11.134 12.3114 10.5479 11.96C10.2664 11.7912 10.0671 11.5909 9.93457 11.3486C9.80117 11.1046 9.71881 10.787 9.71875 10.3594C9.71875 9.60912 10.025 9.03562 10.5957 8.63184C11.1871 8.21353 12.0994 7.95312 13.3252 7.95312Z" stroke="#83CD29"/>
</svg>
