<svg xmlns="http://www.w3.org/2000/svg" xmlns:xlink="http://www.w3.org/1999/xlink" style="display:none">
  <!-- HTML Icon -->
  <symbol id="html" viewBox="0 0 250 250">
    <path d="M34.668 224.609L14.6484 0H234.863L214.844 224.609L124.512 250" fill="#E34F26"/>
    <path d="M125 230.469L197.754 210.449L214.844 18.0664H125" fill="#EF652A"/>
    <path d="M125 101.562H88.3789L85.9375 73.2422H125V45.8984H55.6641L62.9883 129.395H125V101.562ZM124.512 173.34L93.75 165.039L91.7969 143.066H64.4531L67.8711 186.523L124.512 202.148V173.34Z" fill="#EBEBEB"/>
    <path d="M124.512 101.562V129.395H158.691L155.273 165.039L124.512 173.34V202.148L181.152 186.523L188.965 101.562H124.512ZM124.512 45.8984V73.2422H191.406L193.848 45.8984H124.512Z" fill="white"/>
  </symbol>

  <!-- CSS Icon -->
  <symbol id="css" viewBox="0 0 250 250">
    <path d="M15.625 0L35.5469 225L125 250L214.422 225.016L234.375 0H15.625Z" fill="#2196F3"/>
    <path d="M191.781 73.5781L189.266 101.844L181.672 186.578L125 202.25L124.953 202.266L68.3125 186.578L64.3594 142.266H92.1094L94.1719 165.25L124.969 173.562L124.984 173.547L155.828 165.234L160.031 126.937L63.0312 127.203L60.2812 101.016L162.359 99.8125L164.422 71.7812L57.5469 72.0781L55.75 46H194.25L191.781 73.5781Z" fill="#FAFAFA"/>
  </symbol>

  <!-- JavaScript Icon -->
  <symbol id="javascript" viewBox="0 0 250 250">
    <g clip-path="url(#clip0_91_56)">
    <path d="M0 0H250V250H0V0Z" fill="#F7DF1E"/>
    <path d="M65.7344 208.918L84.8652 197.34C88.5566 203.884 91.9141 209.421 99.9678 209.421C107.687 209.421 112.556 206.401 112.556 194.655V114.774H136.049V194.987C136.049 219.32 121.785 230.396 100.975 230.396C82.1807 230.396 71.2715 220.663 65.7334 208.916M148.81 206.4L167.938 195.325C172.975 203.549 179.52 209.59 191.098 209.59C200.833 209.59 207.04 204.723 207.04 198.01C207.04 189.955 200.663 187.102 189.923 182.404L184.051 179.885C167.101 172.671 155.857 163.608 155.857 144.478C155.857 126.856 169.282 113.431 190.26 113.431C205.195 113.431 215.936 118.634 223.654 132.227L205.361 143.975C201.333 136.759 196.972 133.906 190.259 133.906C183.378 133.906 179.015 138.27 179.015 143.975C179.015 151.022 183.378 153.877 193.446 158.24L199.319 160.757C219.29 169.316 230.533 178.042 230.533 197.675C230.533 218.821 213.92 230.399 191.601 230.399C169.785 230.399 155.688 219.995 148.809 206.401" fill="black"/>
    </g>
    <defs>
    <clipPath id="clip0_91_56">
    <rect width="250" height="250" fill="white"/>
    </clipPath>
    </defs>
  </symbol>

  <!-- Node.js Icon -->
  <symbol id="nodejs" viewBox="0 0 250 250">
    <path d="M220.256 59.2461L134.129 9.23633C128.697 6.14258 121.625 6.14258 116.15 9.23633L29.1035 59.2461C23.498 62.4707 19.5312 68.5313 19.5312 75.0137V174.9C19.5312 181.383 23.6016 187.445 29.207 190.688L52.2051 203.75C63.1973 209.164 67.082 209.164 72.084 209.164C88.3594 209.164 97.6562 199.322 97.6562 182.156V83.543C97.6562 82.1504 96.9316 80.0781 95.5645 80.0781H84.582C83.1914 80.0781 80.0781 82.1504 80.0781 83.541V182.154C80.0781 189.764 73.1953 197.336 60.332 190.904L36.5684 177.207C35.7402 176.758 35.1562 175.854 35.1562 174.9V75.0137C35.1562 74.0723 36.2402 73.127 37.0742 72.6445L123.84 22.7207C124.65 22.2617 125.842 22.2617 126.65 22.7207L212.357 72.6328C213.178 73.127 212.889 74.043 212.889 75.0137V174.9C212.889 175.854 213.246 176.781 212.436 177.24L126.33 227.193C125.592 227.637 124.676 227.637 123.867 227.193L101.783 214.012C101.117 213.625 100.326 213.486 99.6875 213.844C93.543 217.326 92.4102 217.789 86.6465 219.787C85.2285 220.281 83.1367 221.139 87.4473 223.555L116.35 240.652C119.117 242.254 122.262 243.086 125.426 243.086C128.633 243.086 131.773 242.254 134.541 240.652L220.254 190.688C225.859 187.422 228.516 181.383 228.516 174.9V75.0137C228.516 68.5313 225.859 62.4863 220.256 59.2461ZM152.168 159.072C129.266 159.072 124.221 152.754 122.539 141.365C122.344 140.139 121.303 138.672 120.055 138.672H108.861C107.477 138.672 106.363 140.352 106.363 141.73C106.363 156.313 114.291 173.98 152.17 173.98C179.59 173.98 195.311 163.326 195.311 144.471C195.311 125.775 182.68 120.869 156.088 117.35C129.209 113.797 126.479 112.002 126.479 105.705C126.479 100.514 128.791 93.5898 148.693 93.5898C166.477 93.5898 173.031 97.4062 175.729 109.393C175.959 110.52 176.988 111.328 178.15 111.328H189.389C190.08 111.328 190.74 111.049 191.225 110.555C191.693 110.023 191.941 109.357 191.879 108.643C190.139 88.002 176.426 78.3828 148.691 78.3828C124.021 78.3828 109.305 88.8008 109.305 106.264C109.305 125.205 123.947 130.439 147.629 132.781C175.959 135.559 178.162 139.699 178.162 145.271C178.162 154.949 170.393 159.072 152.168 159.072Z" fill="#83CD29"/>
  </symbol>

  <!-- React Icon -->
  <symbol id="react" viewBox="0 0 250 250">
    <path d="M125 147.266C137.297 147.266 147.266 137.297 147.266 125C147.266 112.703 137.297 102.734 125 102.734C112.703 102.734 102.734 112.703 102.734 125C102.734 137.297 112.703 147.266 125 147.266Z" fill="#61DAFB"/>
    <path d="M209.57 88.2812C205.273 86.7187 200.781 85.1563 196.094 83.7891C197.266 79.1016 198.242 74.4141 199.023 69.9219C203.125 44.1406 198.633 25.9766 186.133 18.9453C182.422 16.7969 178.32 15.8203 173.633 15.8203C159.961 15.8203 142.578 25.9766 125 42.9687C107.422 25.9766 90.0391 15.8203 76.3672 15.8203C71.6797 15.8203 67.5781 16.7969 63.8672 18.9453C51.3672 26.1719 46.875 44.3359 50.9766 69.9219C51.7578 74.4141 52.7344 79.1016 53.9063 83.7891C49.2188 85.1563 44.7266 86.5234 40.4297 88.2812C16.0156 97.6562 2.73438 110.547 2.73438 125C2.73438 139.453 16.2109 152.344 40.4297 161.719C44.7266 163.281 49.2188 164.844 53.9063 166.211C52.7344 170.898 51.7578 175.586 50.9766 180.078C46.875 205.859 51.3672 224.023 63.8672 231.055C67.5781 233.203 71.6797 234.18 76.3672 234.18C90.2344 234.18 107.617 224.023 125 207.031C142.578 224.023 159.961 234.18 173.633 234.18C178.32 234.18 182.422 233.203 186.133 231.055C198.633 223.828 203.125 205.664 199.023 180.078C198.242 175.586 197.266 170.898 196.094 166.211C200.781 164.844 205.273 163.477 209.57 161.719C233.984 152.344 247.266 139.453 247.266 125C247.266 110.547 233.984 97.6562 209.57 88.2812ZM180.664 28.7109C188.672 33.3984 191.406 47.8516 188.086 68.3594C187.5 72.4609 186.523 76.7578 185.352 81.25C175.195 78.9062 164.453 77.3437 153.125 76.3672C146.484 66.9922 139.648 58.5938 132.812 50.9766C147.266 36.7187 161.914 26.9531 173.828 26.9531C176.367 26.9531 178.711 27.5391 180.664 28.7109ZM158.789 144.531C155.273 150.781 151.172 157.031 146.875 163.281C139.648 163.867 132.422 164.063 125 164.063C117.383 164.063 110.156 163.867 103.125 163.281C98.8281 157.031 94.9219 150.781 91.4062 144.531C87.6953 138.086 84.1797 131.445 81.0547 125C84.1797 118.555 87.6953 111.914 91.4062 105.469C94.9219 99.2188 99.0234 92.9688 103.32 86.7188C110.547 86.1328 117.773 85.9375 125.195 85.9375C132.812 85.9375 140.039 86.1328 147.07 86.7188C151.367 92.9688 155.273 99.2188 158.789 105.469C162.5 111.914 166.016 118.555 169.141 125C165.82 131.445 162.5 137.891 158.789 144.531ZM175 138.086C177.93 144.922 180.273 151.563 182.422 158.203C175.781 159.766 168.75 160.938 161.328 161.914C163.672 158.203 166.211 154.297 168.359 150.195C170.703 146.094 172.852 141.992 175 138.086ZM125 191.016C120.312 185.938 115.82 180.469 111.523 174.805C116.016 175 120.508 175.195 125 175.195C129.492 175.195 133.984 175 138.477 174.805C134.18 180.469 129.687 185.938 125 191.016ZM88.6719 161.719C81.25 160.742 74.2187 159.57 67.5781 158.008C69.7266 151.563 72.0703 144.727 75 137.891C77.1484 141.797 79.2969 145.898 81.6406 149.805C83.9844 154.102 86.3281 157.813 88.6719 161.719ZM75 111.914C72.0703 105.078 69.7266 98.4375 67.5781 91.7969C74.2187 90.2344 81.25 89.0625 88.6719 88.0859C86.3281 91.7969 83.7891 95.7031 81.6406 99.8047C79.2969 103.906 77.1484 108.008 75 111.914ZM125 58.9844C129.687 64.0625 134.18 69.5312 138.477 75.1953C133.984 75 129.492 74.8047 125 74.8047C120.508 74.8047 116.016 75 111.523 75.1953C115.82 69.5312 120.312 64.0625 125 58.9844ZM168.359 100L161.328 88.2812C168.75 89.2578 175.781 90.4297 182.422 91.9922C180.273 98.4375 177.93 105.273 175 112.109C172.852 108.008 170.703 103.906 168.359 100ZM61.9141 68.3594C58.5938 47.8516 61.3281 33.3984 69.3359 28.7109C71.2891 27.5391 73.6328 26.9531 76.1719 26.9531C87.8906 26.9531 102.539 36.5234 117.187 50.9766C110.352 58.3984 103.516 66.9922 96.875 76.3672C85.5469 77.3437 74.8047 79.1016 64.6484 81.25C63.4766 76.7578 62.6953 72.4609 61.9141 68.3594ZM13.6719 125C13.6719 115.82 24.8047 106.055 44.3359 98.8281C48.2422 97.2656 52.5391 95.8984 56.8359 94.7266C59.9609 104.492 63.8672 114.844 68.5547 125.195C63.8672 135.547 59.7656 145.703 56.8359 155.469C29.8828 147.656 13.6719 135.938 13.6719 125ZM69.3359 221.289C61.3281 216.602 58.5938 202.148 61.9141 181.641C62.5 177.539 63.4766 173.242 64.6484 168.75C74.8047 171.094 85.5469 172.656 96.875 173.633C103.516 183.008 110.352 191.406 117.187 199.023C102.734 213.281 88.0859 223.047 76.1719 223.047C73.6328 223.047 71.2891 222.461 69.3359 221.289ZM188.086 181.641C191.406 202.148 188.672 216.602 180.664 221.289C178.711 222.461 176.367 223.047 173.828 223.047C162.109 223.047 147.461 213.477 132.812 199.023C139.648 191.602 146.484 183.008 153.125 173.633C164.453 172.656 175.195 170.898 185.352 168.75C186.523 173.242 187.305 177.539 188.086 181.641ZM205.664 151.172C201.758 152.734 197.461 154.102 193.164 155.273C190.039 145.508 186.133 135.156 181.445 124.805C186.133 114.453 190.234 104.297 193.164 94.5313C220.117 102.344 236.328 114.063 236.328 125C236.328 134.18 225 143.945 205.664 151.172Z" fill="#61DAFB"/>

  </symbol>

  <!-- Java Icon -->
  <symbol id="java" viewBox="0 0 250 250">
    <path d="M93.0019 191.641C93.0019 191.641 83.6914 197.059 99.6367 198.887C118.957 201.094 128.83 200.777 150.115 196.754C150.115 196.754 155.723 200.26 163.539 203.299C115.807 223.748 55.5156 202.113 93.0019 191.641ZM87.166 164.951C87.166 164.951 76.7207 172.684 92.6797 174.336C113.318 176.467 129.613 176.641 157.824 171.211C157.824 171.211 161.717 175.166 167.848 177.326C110.148 194.201 45.8828 178.654 87.166 164.951Z" fill="#0074BD"/>
    <path d="M136.332 119.67C148.1 133.215 133.246 145.393 133.246 145.393C133.246 145.393 163.107 129.98 149.397 110.672C136.586 92.6738 126.766 83.7344 179.934 52.8984C179.934 52.9004 96.4747 73.7383 136.332 119.67Z" fill="#EA2D2E"/>
    <path d="M199.459 211.385C199.459 211.385 206.351 217.068 191.865 221.461C164.322 229.805 77.2049 232.32 53.0096 221.795C44.3163 218.01 60.6249 212.762 65.7557 211.654C71.1053 210.496 74.16 210.707 74.16 210.707C64.4862 203.896 11.6346 224.086 47.3182 229.877C144.625 245.65 224.695 222.773 199.459 211.385ZM97.4842 137.293C97.4842 137.293 53.1757 147.818 81.7948 151.645C93.8807 153.262 117.963 152.891 140.41 151.008C158.75 149.467 177.154 146.176 177.154 146.176C177.154 146.176 170.693 148.947 166.014 152.139C121.01 163.977 34.0917 158.463 59.1171 146.361C80.2733 136.129 97.4842 137.293 97.4842 137.293ZM176.971 181.721C222.715 157.957 201.562 135.119 186.799 138.195C183.189 138.947 181.57 139.602 181.57 139.602C181.57 139.602 182.914 137.494 185.476 136.588C214.682 126.324 237.139 166.867 176.057 182.926C176.057 182.922 176.758 182.287 176.971 181.721Z" fill="#0074BD"/>
    <path d="M149.396 3.09961C149.396 3.09961 174.724 28.4434 125.367 67.4023C85.785 98.6641 116.342 116.484 125.353 136.854C102.246 116.008 85.2967 97.6543 96.6659 80.5742C113.361 55.5078 159.613 43.3496 149.396 3.09961Z" fill="#EA2D2E"/>
    <path d="M101.98 246.135C145.879 248.941 213.309 244.572 214.904 223.799C214.904 223.799 211.836 231.674 178.621 237.922C141.148 244.977 94.9219 244.154 67.5137 239.629C67.5137 239.631 73.1289 244.279 101.98 246.135Z" fill="#0074BD"/>
  </symbol>

  <!-- Data Icon -->
  <symbol id="database" viewBox="0 0 250 250">
    <path d="M234.375 35.7144V58.0356C234.375 77.7065 185.384 93.75 125 93.75C64.6157 93.75 15.625 77.7065 15.625 58.0356V35.7144C15.625 16.0435 64.6157 0 125 0C185.384 0 234.375 16.0435 234.375 35.7144ZM234.375 85.9375V136.161C234.375 155.832 185.384 171.875 125 171.875C64.6157 171.875 15.625 155.832 15.625 136.161V85.9375C39.1235 102.121 82.1328 109.654 125 109.654C167.867 109.654 210.876 102.121 234.375 85.9375ZM234.375 164.062V214.286C234.375 233.957 185.384 250 125 250C64.6157 250 15.625 233.957 15.625 214.286V164.062C39.1235 180.246 82.1328 187.779 125 187.779C167.867 187.779 210.876 180.246 234.375 164.062Z" fill="white"/>
  </symbol>

  <!-- GitHub Icon -->
  <symbol id="github" viewBox="0 0 250 250">
    <path d="M124.999 3C95.3181 3.00123 66.6057 13.5712 43.9996 32.8185C21.3935 52.0659 6.36906 78.7346 1.61449 108.053C-3.14007 137.371 2.68554 167.426 18.049 192.839C33.4124 218.253 57.311 237.367 85.4687 246.761C91.7187 247.855 94.0624 244.103 94.0624 240.819C94.0624 237.848 93.9061 227.998 93.9061 217.522C62.4999 223.307 54.375 209.861 51.875 202.825C49.1009 195.982 44.7035 189.917 39.0626 185.156C34.6876 182.811 28.4376 177.025 38.9062 176.869C42.9035 177.303 46.7374 178.695 50.0829 180.927C53.4284 183.159 56.187 186.165 58.1249 189.69C59.8346 192.764 62.1334 195.469 64.8898 197.652C67.6461 199.835 70.8058 201.452 74.1877 202.41C77.5697 203.369 81.1074 203.65 84.5982 203.238C88.089 202.827 91.4643 201.729 94.5307 200.01C95.0718 193.651 97.9039 187.705 102.5 183.28C74.6873 180.153 45.625 169.364 45.625 121.519C45.4494 109.087 50.0336 97.0595 58.4374 87.9023C54.616 77.0976 55.0631 65.2403 59.6874 54.7546C59.6874 54.7546 70.1557 51.4709 94.0622 67.5758C114.516 61.9467 136.108 61.9467 156.562 67.5758C180.468 51.3147 190.937 54.7546 190.937 54.7546C195.561 65.2401 196.009 77.0977 192.186 87.9023C200.616 97.0438 205.204 109.082 204.999 121.519C204.999 169.52 175.78 180.153 147.968 183.28C150.951 186.306 153.249 189.938 154.705 193.931C156.16 197.924 156.741 202.184 156.405 206.421C156.405 223.151 156.249 236.598 156.249 240.819C156.249 244.103 158.593 248.012 164.843 246.761C192.951 237.29 216.781 218.132 232.079 192.705C247.377 167.279 253.147 137.24 248.36 107.95C243.572 78.6599 228.538 52.0257 205.942 32.8018C183.346 13.5779 154.658 3.01545 124.999 3Z" fill="white"/>
  </symbol>

  <!-- GitHub2 Icon -->
  <symbol id="github2" viewBox="0 0 250 250">
    <path d="M124.999 3C95.3181 3.00123 66.6057 13.5712 43.9996 32.8185C21.3935 52.0659 6.36906 78.7346 1.61449 108.053C-3.14007 137.371 2.68554 167.426 18.049 192.839C33.4124 218.253 57.311 237.367 85.4687 246.761C91.7187 247.855 94.0624 244.103 94.0624 240.819C94.0624 237.848 93.9061 227.998 93.9061 217.522C62.4999 223.307 54.375 209.861 51.875 202.825C49.1009 195.982 44.7035 189.917 39.0626 185.156C34.6876 182.811 28.4376 177.025 38.9062 176.869C42.9035 177.303 46.7374 178.695 50.0829 180.927C53.4284 183.159 56.187 186.165 58.1249 189.69C59.8346 192.764 62.1334 195.469 64.8898 197.652C67.6461 199.835 70.8058 201.452 74.1877 202.41C77.5697 203.369 81.1074 203.65 84.5982 203.238C88.089 202.827 91.4643 201.729 94.5307 200.01C95.0718 193.651 97.9039 187.705 102.5 183.28C74.6873 180.153 45.625 169.364 45.625 121.519C45.4494 109.087 50.0336 97.0595 58.4374 87.9023C54.616 77.0976 55.0631 65.2403 59.6874 54.7546C59.6874 54.7546 70.1557 51.4709 94.0622 67.5758C114.516 61.9467 136.108 61.9467 156.562 67.5758C180.468 51.3147 190.937 54.7546 190.937 54.7546C195.561 65.2401 196.009 77.0977 192.186 87.9023C200.616 97.0438 205.204 109.082 204.999 121.519C204.999 169.52 175.78 180.153 147.968 183.28C150.951 186.306 153.249 189.938 154.705 193.931C156.16 197.924 156.741 202.184 156.405 206.421C156.405 223.151 156.249 236.598 156.249 240.819C156.249 244.103 158.593 248.012 164.843 246.761C192.951 237.29 216.781 218.132 232.079 192.705C247.377 167.279 253.147 137.24 248.36 107.95C243.572 78.6599 228.538 52.0257 205.942 32.8018C183.346 13.5779 154.658 3.01545 124.999 3Z" fill="#A1A1A1"/>
  </symbol>

  <!-- Discord Icon -->
  <symbol id="discord" viewBox="0 0 250 250">
    <path d="M160.75 118.75C160.75 126.375 155.125 132.625 148 132.625C141 132.625 135.25 126.375 135.25 118.75C135.25 111.125 140.875 104.875 148 104.875C155.125 104.875 160.75 111.125 160.75 118.75ZM102.375 104.875C95.25 104.875 89.625 111.125 89.625 118.75C89.625 126.375 95.375 132.625 102.375 132.625C109.5 132.625 115.125 126.375 115.125 118.75C115.25 111.125 109.5 104.875 102.375 104.875ZM234.375 25.75V250C202.884 222.171 212.955 231.383 176.375 197.375L183 220.5H41.25C27.125 220.5 15.625 209 15.625 194.75V25.75C15.625 11.5 27.125 0 41.25 0H208.75C222.875 0 234.375 11.5 234.375 25.75ZM198.75 144.25C198.75 104 180.75 71.375 180.75 71.375C162.75 57.875 145.625 58.25 145.625 58.25L143.875 60.25C165.125 66.75 175 76.125 175 76.125C145.307 59.8511 110.428 59.8481 81.625 72.5C77 74.625 74.25 76.125 74.25 76.125C74.25 76.125 84.625 66.25 107.125 59.75L105.875 58.25C105.875 58.25 88.75 57.875 70.75 71.375C70.75 71.375 52.75 104 52.75 144.25C52.75 144.25 63.25 162.375 90.875 163.25C90.875 163.25 95.5 157.625 99.25 152.875C83.375 148.125 77.375 138.125 77.375 138.125C79.2139 139.412 82.2461 141.081 82.5 141.25C103.599 153.065 133.568 156.937 160.5 145.625C164.875 144 169.75 141.625 174.875 138.25C174.875 138.25 168.625 148.5 152.25 153.125C156 157.875 160.5 163.25 160.5 163.25C188.125 162.375 198.75 144.25 198.75 144.25Z" fill="#A1A1A1"/>
  </symbol>

  <!-- Facebook Icon -->
  <symbol id="facebook" viewBox="0 0 250 250">
    <g clip-path="url(#clip0_91_89)">
    <path d="M512 256C512 114.615 397.385 0 256 0C114.615 0 0 114.615 0 256C0 383.777 93.6155 489.685 216 508.889V330H151V256H216V199.6C216 135.44 254.219 100 312.695 100C340.704 100 370 105 370 105V168H337.719C305.918 168 296 187.733 296 207.979V256H367L355.65 330H296V508.889C418.384 489.685 512 383.777 512 256Z" fill="#1877F2"/>
    <path d="M355.65 330L367 256H296V207.979C296 187.733 305.918 168 337.719 168H370V105C370 105 340.704 100 312.695 100C254.219 100 216 135.44 216 199.6V256H151V330H216V508.889C242.505 513.037 269.495 513.037 296 508.889V330H355.65Z" fill="white"/>
    </g>
    <defs>
    <clipPath id="clip0_91_89">
    <rect width="512" height="512" fill="white"/>
    </clipPath>
    </defs>
  </symbol>



  <!-- Instagram Icon -->
  <symbol id="instagram" viewBox="0 0 250 250">
    <g clip-path="url(#clip0_125_100)">
    <path d="M83.3366 125C83.3366 116.759 85.7804 108.703 90.359 101.851C94.9375 94.9992 101.445 89.6587 109.059 86.505C116.673 83.3514 125.051 82.5262 133.134 84.1339C141.217 85.7417 148.641 89.71 154.469 95.5372C160.296 101.364 164.265 108.789 165.873 116.871C167.48 124.954 166.655 133.332 163.501 140.945C160.348 148.559 155.007 155.066 148.155 159.645C141.302 164.223 133.246 166.667 125.005 166.667C113.954 166.667 103.355 162.277 95.541 154.463C87.7266 146.649 83.3366 136.051 83.3366 125ZM60.8088 125C60.8088 137.695 64.5732 150.104 71.626 160.659C78.6788 171.214 88.7033 179.441 100.432 184.3C112.16 189.158 125.066 190.43 137.517 187.953C149.969 185.477 161.406 179.365 170.383 170.389C179.361 161.413 185.475 149.977 187.952 137.527C190.43 125.076 189.16 112.171 184.302 100.442C179.445 88.7134 171.219 78.6884 160.664 71.6346C150.109 64.5809 137.7 60.8152 125.005 60.8137C116.575 60.8134 108.228 62.4734 100.441 65.699C92.6526 68.9245 85.5764 73.6524 79.6159 79.6127C73.6553 85.573 68.9272 92.649 65.7015 100.437C62.4759 108.224 60.8158 116.571 60.8161 125M176.723 58.2696C176.722 61.2363 177.6 64.1367 179.248 66.604C180.895 69.0713 183.238 70.9946 185.978 72.1308C188.719 73.267 191.735 73.5651 194.645 72.9872C197.555 72.4094 200.228 70.9817 202.327 68.8846C204.425 66.7875 205.855 64.1152 206.435 61.2057C207.014 58.2961 206.718 55.2801 205.584 52.5388C204.449 49.7975 202.527 47.4542 200.061 45.8052C197.595 44.1562 194.695 43.2755 191.728 43.2745C187.751 43.2765 183.938 44.8568 181.125 47.6683C178.312 50.4799 176.731 54.2928 176.728 58.2696M74.5127 226.748C66.5853 226.657 58.7327 225.203 51.2986 222.449C45.8691 220.442 40.9568 217.247 36.9206 213.098C32.7652 209.071 29.5693 204.16 27.5697 198.73C24.8108 191.298 23.3531 183.445 23.2607 175.517C22.6553 162.341 22.5254 158.382 22.5254 125.002C22.5254 91.6225 22.6553 87.674 23.2607 74.4877C23.3603 66.5615 24.8143 58.7107 27.5599 51.2745C29.5668 45.8453 32.7616 40.9331 36.9108 36.8971C40.9399 32.7395 45.8544 29.5435 51.2888 27.5466C58.7254 24.7891 66.5818 23.334 74.5127 23.2451C87.6897 22.6397 91.6482 22.5098 125.005 22.5098C158.362 22.5098 162.335 22.6397 175.522 23.2451C183.448 23.3446 191.299 24.7986 198.736 27.5441C204.167 29.5472 209.08 32.7424 213.114 36.8946C217.266 40.928 220.461 45.841 222.465 51.2721C225.22 58.7055 226.674 66.5581 226.764 74.4853C227.369 87.6716 227.499 91.6201 227.499 125C227.499 158.38 227.379 162.328 226.764 175.515C226.668 183.441 225.214 191.293 222.465 198.728C220.384 204.119 217.198 209.014 213.111 213.099C209.025 217.184 204.128 220.368 198.736 222.446C191.302 225.202 183.449 226.656 175.522 226.745C162.345 227.35 158.386 227.48 125.005 227.48C91.6237 227.48 87.675 227.363 74.5127 226.748ZM73.4686 0.757353C63.099 0.96249 52.8393 2.92582 43.1267 6.56373C34.7847 9.70261 27.2274 14.6224 20.9812 20.9804C14.6164 27.2205 9.69469 34.7781 6.56153 43.1225C2.92437 52.8358 0.961798 63.0958 0.757383 73.4657C0.142162 86.7941 0 91.0539 0 125C0 158.946 0.142162 163.206 0.757383 176.534C0.962764 186.904 2.92616 197.163 6.56398 206.875C9.69704 215.22 14.6178 222.778 20.9812 229.02C27.2295 235.374 34.7851 240.295 43.1242 243.439C52.8373 247.075 63.0966 249.039 73.4661 249.245C86.8024 249.85 91.055 250.002 125.002 250.002C158.95 250.002 163.21 249.86 176.539 249.245C186.908 249.04 197.168 247.076 206.881 243.439C215.187 240.228 222.73 235.316 229.026 229.02C235.323 222.723 240.235 215.181 243.446 206.875C247.088 197.164 249.052 186.904 249.252 176.534C249.858 163.196 249.988 158.946 249.988 125C249.988 91.0539 249.846 86.7941 249.252 73.4657C249.048 63.0965 247.084 52.8372 243.446 43.125C240.302 34.7857 235.383 27.2296 229.029 20.9804C222.789 14.6193 215.235 9.69821 206.895 6.56127C197.182 2.9215 186.922 0.958917 176.551 0.757353C163.225 0.151961 158.962 0 125.005 0C91.0477 0 86.7926 0.142157 73.4588 0.757353" fill="#A1A1A1"/>
    </g>
    <defs>
    <clipPath id="clip0_125_100">
    <rect width="250" height="250" fill="white"/>
    </clipPath>
    </defs>
  </symbol>

  <!-- Linkedin Icon -->
  <symbol id="linkedin" viewBox="0 0 250 250">
    <g clip-path="url(#clip0_91_77)">
    <path d="M231.514 -0.998245H18.4859C16.0913 -1.03143 13.7135 -0.593545 11.4885 0.290418C9.26346 1.17438 7.2347 2.4871 5.51808 4.15361C3.80145 5.82012 2.4306 7.80777 1.4838 10.0031C0.537002 12.1983 0.0328017 14.5582 0 16.948V232.052C0.0328017 234.442 0.537002 236.802 1.4838 238.997C2.4306 241.192 3.80145 243.18 5.51808 244.846C7.2347 246.513 9.26346 247.826 11.4885 248.71C13.7135 249.594 16.0913 250.031 18.4859 249.998H231.514C233.909 250.031 236.286 249.594 238.511 248.71C240.737 247.826 242.765 246.513 244.482 244.846C246.199 243.18 247.569 241.192 248.516 238.997C249.463 236.802 249.967 234.442 250 232.052V16.948C249.967 14.5582 249.463 12.1983 248.516 10.0031C247.569 7.80777 246.199 5.82012 244.482 4.15361C242.765 2.4871 240.737 1.17438 238.511 0.290418C236.286 -0.593545 233.909 -1.03143 231.514 -0.998245ZM75.83 209.086H38.1036V96.1374H75.83V209.086ZM56.9668 80.3246C51.7639 80.3246 46.774 78.262 43.095 74.5904C39.4159 70.9189 37.3491 65.9392 37.3491 60.7469C37.3491 55.5546 39.4159 50.5749 43.095 46.9033C46.774 43.2318 51.7639 41.1692 56.9668 41.1692C59.7296 40.8565 62.5274 41.1297 65.177 41.9709C67.8266 42.8121 70.2683 44.2023 72.3423 46.0506C74.4162 47.8988 76.0755 50.1633 77.2117 52.6959C78.3478 55.2285 78.9351 57.9721 78.9351 60.7469C78.9351 63.5217 78.3478 66.2652 77.2117 68.7978C76.0755 71.3304 74.4162 73.595 72.3423 75.4432C70.2683 77.2915 67.8266 78.6817 65.177 79.5229C62.5274 80.3641 59.7296 80.6373 56.9668 80.3246ZM211.896 209.086H174.17V148.47C174.17 133.285 168.763 123.371 155.055 123.371C150.813 123.402 146.682 124.729 143.22 127.175C139.757 129.621 137.129 133.067 135.689 137.05C134.705 140 134.279 143.106 134.432 146.211V208.96H96.7052C96.7052 208.96 96.7052 106.303 96.7052 96.0119H134.432V111.95C137.859 106.015 142.843 101.126 148.849 97.8091C154.854 94.4919 161.652 92.8726 168.511 93.1254C193.662 93.1254 211.896 109.315 211.896 144.078V209.086Z" fill="#A1A1A1"/>
    </g>
    <defs>
    <clipPath id="clip0_91_77">
    <rect width="250" height="250" fill="white"/>
    </clipPath>
    </defs>
  </symbol>

  <!-- WhatsApp Icon -->
  <symbol id="whatsapp" viewBox="0 0 250 250">
    <g clip-path="url(#clip0_91_92)">
    <path fill-rule="evenodd" clip-rule="evenodd" d="M317.12 285.93C307.43 289.89 301.24 305.06 294.96 312.81C291.74 316.78 287.9 317.4 282.95 315.41C246.58 300.92 218.7 276.65 198.63 243.18C195.23 237.99 195.84 233.89 199.94 229.07C206 221.93 213.62 213.82 215.26 204.2C218.9 182.92 191.08 116.91 154.34 146.82C48.6202 232.97 330.7 461.46 381.61 337.88C396.01 302.85 333.18 279.35 317.12 285.93ZM256 467.28C218.61 467.28 181.82 457.34 149.61 438.52C144.44 435.49 138.19 434.69 132.41 436.26L62.4202 455.47L86.8002 401.76C90.1202 394.45 89.2702 385.94 84.5802 379.44C58.5002 343.29 44.7102 300.61 44.7102 256C44.7102 139.49 139.49 44.71 256 44.71C372.51 44.71 467.28 139.49 467.28 256C467.28 372.5 372.5 467.28 256 467.28ZM256 0C114.84 0 0.00023492 114.84 0.00023492 256C0.00023492 305.66 14.1002 353.35 40.8902 394.74L2.00023 480.39C-1.58977 488.3 -0.279765 497.56 5.34024 504.15C9.66024 509.2 15.9102 512 22.3602 512C36.7802 512 115.41 487.29 135.42 481.8C172.41 501.59 213.9 512 256 512C397.15 512 512 397.15 512 256C512 114.84 397.15 0 256 0Z" fill="#39AE41"/>
    </g>
    <defs>
    <clipPath id="clip0_91_92">
    <rect width="512" height="512" fill="white"/>
    </clipPath>
    </defs>
  </symbol>

  <!-- Download Icon -->
  <symbol id="download" viewBox="0 0 250 250">
    <path d="M210 113.516C211.602 109.336 212.5 104.766 212.5 100C212.5 79.2969 195.703 62.5 175 62.5C167.305 62.5 160.117 64.8438 154.18 68.8281C143.359 50.0781 123.164 37.5 100 37.5C65.4687 37.5 37.5 65.4688 37.5 100C37.5 101.055 37.5391 102.109 37.5781 103.164C15.7031 110.859 0 131.719 0 156.25C0 187.305 25.1953 212.5 56.25 212.5H200C227.617 212.5 250 190.117 250 162.5C250 138.32 232.812 118.125 210 113.516ZM158.086 148.164L116.914 189.336C114.492 191.758 110.508 191.758 108.086 189.336L66.9141 148.164C62.9688 144.219 65.7813 137.5 71.3281 137.5H96.875V93.75C96.875 90.3125 99.6875 87.5 103.125 87.5H121.875C125.313 87.5 128.125 90.3125 128.125 93.75V137.5H153.672C159.219 137.5 162.031 144.219 158.086 148.164Z" fill="white"/>
  </symbol>

  <!-- Right Icon -->
  <symbol id="right" viewBox="0 0 250 250">
    <g clip-path="url(#clip0_91_75)">
    <path d="M0 125C0 100.277 7.33112 76.1099 21.0663 55.5538C34.8015 34.9976 54.3238 18.9761 77.1646 9.51511C100.005 0.0541601 125.139 -2.42126 149.386 2.4019C173.634 7.22505 195.907 19.1301 213.388 36.6117C230.87 54.0933 242.775 76.3661 247.598 100.614C252.421 124.861 249.946 149.995 240.485 172.835C231.024 195.676 215.002 215.199 194.446 228.934C173.89 242.669 149.723 250 125 250C91.8479 250 60.0537 236.83 36.6117 213.388C13.1696 189.946 0 158.152 0 125ZM125.949 188.447L172.824 141.572C177.218 137.176 179.686 131.215 179.686 125C179.686 118.785 177.218 112.824 172.824 108.428L125.949 61.5528C121.554 57.157 115.593 54.6873 109.376 54.687C103.16 54.6866 97.1985 57.1556 92.8027 61.5508C88.407 65.9461 85.9373 71.9075 85.9369 78.1237C85.9365 84.3399 88.4055 90.3016 92.8008 94.6973L123.104 125L92.8008 155.303C88.4055 159.699 85.9365 165.66 85.9369 171.876C85.9373 178.093 88.407 184.054 92.8027 188.449C97.1985 192.845 103.16 195.314 109.376 195.313C115.593 195.313 121.554 192.843 125.949 188.447Z" fill="white"/>
    </g>
    <defs>
    <clipPath id="clip0_91_75">
    <rect width="250" height="250" fill="white"/>
    </clipPath>
    </defs>
  </symbol>

</svg>